# xmcd
#
# Track frame offsets: 
#        150
#        11900
#        24730
#        40660
#        52475
#        63642
#        71672
#        84317
#        94885
#        108180
#        118605
#        130210
#        143782
#        155850
#        167830
#        177907
#        191120
#        203880
#        216695
#        226880
#        241202
#        255447
#        266320
#        278087
#        289245
#        302200
#        313807
#        325937
#        338052
#
# Disc length: 4667 seconds
#
# Revision: 0
# Processed by: cddbd v1.4PL0 Copyright (c) Steve Scherf et al.
# Submitted via: ExactAudioCopy v0.90b4
#
DISCID=bf12391d
DTITLE=Jimmy Martin and the Sunny Mountain Boys - 1954 - 1974 [CD3]
DYEAR=1994
DGENRE=Bluegrass
TTITLE0=Prayer Bell Of Heaven
TTITLE1=Give Me Your Hand
TTITLE2=Stormy Waters
TTITLE3=What Would You Give In Exchange
TTITLE4=Shut-In's Prayer
TTITLE5=A Beautiful Life
TTITLE6=Little White Church
TTITLE7=The Old Man's Drunk Again
TTITLE8=Moonshine Hollow
TTITLE9=Hey Lonesome
TTITLE10=Tennessee
TTITLE11=Widow Maker
TTITLE12=I'm Thinking Tonight Of My Blue Eyes
TTITLE13=Red River Valley
TTITLE14=John Henry
TTITLE15=Truck Driving Man
TTITLE16=There's More Pretty Girls Than One
TTITLE17=Six Days On The Road
TTITLE18=Truck Driver's Queen
TTITLE19=I'd Rather Have America
TTITLE20=Little Robin
TTITLE21=There's Better Times A'Coming
TTITLE22=20/20 Vision
TTITLE23=Guitar Picking President
TTITLE24=It Takes One To Know One
TTITLE25=Sunny Side Of The Mountain
TTITLE26=Snow White Grave
TTITLE27=Poor Ellen Smith
TTITLE28=Shenandoah Waltz
EXTD=
EXTT0=
EXTT1=
EXTT2=
EXTT3=
EXTT4=
EXTT5=
EXTT6=
EXTT7=
EXTT8=
EXTT9=
EXTT10=
EXTT11=
EXTT12=
EXTT13=
EXTT14=
EXTT15=
EXTT16=
EXTT17=
EXTT18=
EXTT19=
EXTT20=
EXTT21=
EXTT22=
EXTT23=
EXTT24=
EXTT25=
EXTT26=
EXTT27=
EXTT28=
PLAYORDER=
